<svg xmlns="http://www.w3.org/2000/svg" width="1560" height="590" viewBox="0 0 1560 590">
<rect width="100%" height="100%" fill="white"/>
<text x="20" y="26" font-family="Arial" font-size="17" font-weight="700">Task-paired retrieve-then-route failure decomposition</text>
<text x="20" y="50" font-family="Arial" font-size="13" fill="#555">Each task is attributed to its first failed stage; success means both stages pass.</text>
<rect x="30" y="78" width="380" height="430" rx="8" fill="#fafafa" stroke="#d8d8d8"/>
<text x="44" y="103" font-family="Arial" font-size="15" font-weight="700">A. Stage 1 — RQ3 retrieval gate</text>
<line x1="84" y1="154" x2="84" y2="424" stroke="#333"/>
<line x1="84" y1="424" x2="390" y2="424" stroke="#333"/>
<line x1="84" y1="424.00" x2="390" y2="424.00" stroke="#e5e5e5"/>
<text x="77" y="428.00" text-anchor="end" font-family="Arial" font-size="11">0.00</text>
<line x1="84" y1="356.50" x2="390" y2="356.50" stroke="#e5e5e5"/>
<text x="77" y="360.50" text-anchor="end" font-family="Arial" font-size="11">0.25</text>
<line x1="84" y1="289.00" x2="390" y2="289.00" stroke="#e5e5e5"/>
<text x="77" y="293.00" text-anchor="end" font-family="Arial" font-size="11">0.50</text>
<line x1="84" y1="221.50" x2="390" y2="221.50" stroke="#e5e5e5"/>
<text x="77" y="225.50" text-anchor="end" font-family="Arial" font-size="11">0.75</text>
<line x1="84" y1="154.00" x2="390" y2="154.00" stroke="#e5e5e5"/>
<text x="77" y="158.00" text-anchor="end" font-family="Arial" font-size="11">1.00</text>
<text x="45" y="289.00" transform="rotate(-90 45,289.00)" text-anchor="middle" font-family="Arial" font-size="11">Rate</text>
<rect x="108.48" y="228.49" width="53.04" height="195.51" fill="#72a0c1"/>
<text x="135.00" y="220.49" text-anchor="middle" font-family="Arial" font-size="12" font-weight="700">0.724</text>
<text x="135.00" y="443" text-anchor="middle" font-family="Arial" font-size="11">Hit@10</text>
<rect x="210.48" y="283.44" width="53.04" height="140.56" fill="#4c78a8"/>
<text x="237.00" y="275.44" text-anchor="middle" font-family="Arial" font-size="12" font-weight="700">0.521</text>
<text x="237.00" y="443" text-anchor="middle" font-family="Arial" font-size="11">Mean recall@10</text>
<rect x="312.48" y="330.90" width="53.04" height="93.10" fill="#2f5f8f"/>
<text x="339.00" y="322.90" text-anchor="middle" font-family="Arial" font-size="12" font-weight="700">0.345</text>
<text x="339.00" y="443" text-anchor="middle" font-family="Arial" font-size="11">Complete-gold</text>
<text x="339.00" y="458" text-anchor="middle" font-family="Arial" font-size="11">coverage@10</text>
<text x="220.00" y="491" text-anchor="middle" font-family="Arial" font-size="12" fill="#555">Full 34k library; hybrid retriever; fixed Top-10</text>
<rect x="425" y="78" width="535" height="430" rx="8" fill="#fafafa" stroke="#d8d8d8"/>
<text x="439" y="103" font-family="Arial" font-size="15" font-weight="700">B. Stage 2 — conditional routing survival</text>
<line x1="479" y1="154" x2="479" y2="424" stroke="#333"/>
<line x1="479" y1="424" x2="940" y2="424" stroke="#333"/>
<line x1="479" y1="424.00" x2="940" y2="424.00" stroke="#e5e5e5"/>
<text x="472" y="428.00" text-anchor="end" font-family="Arial" font-size="11">0.00</text>
<line x1="479" y1="356.50" x2="940" y2="356.50" stroke="#e5e5e5"/>
<text x="472" y="360.50" text-anchor="end" font-family="Arial" font-size="11">0.25</text>
<line x1="479" y1="289.00" x2="940" y2="289.00" stroke="#e5e5e5"/>
<text x="472" y="293.00" text-anchor="end" font-family="Arial" font-size="11">0.50</text>
<line x1="479" y1="221.50" x2="940" y2="221.50" stroke="#e5e5e5"/>
<text x="472" y="225.50" text-anchor="end" font-family="Arial" font-size="11">0.75</text>
<line x1="479" y1="154.00" x2="940" y2="154.00" stroke="#e5e5e5"/>
<text x="472" y="158.00" text-anchor="end" font-family="Arial" font-size="11">1.00</text>
<text x="440" y="289.00" transform="rotate(-90 440,289.00)" text-anchor="middle" font-family="Arial" font-size="11">P(routing exact | retrieval complete)</text>
<line x1="479.00" y1="424" x2="479.00" y2="429" stroke="#333"/>
<text x="479.00" y="444" text-anchor="middle" font-family="Arial" font-size="11">0</text>
<line x1="594.25" y1="424" x2="594.25" y2="429" stroke="#333"/>
<text x="594.25" y="444" text-anchor="middle" font-family="Arial" font-size="11">2</text>
<line x1="709.50" y1="424" x2="709.50" y2="429" stroke="#333"/>
<text x="709.50" y="444" text-anchor="middle" font-family="Arial" font-size="11">5</text>
<line x1="824.75" y1="424" x2="824.75" y2="429" stroke="#333"/>
<text x="824.75" y="444" text-anchor="middle" font-family="Arial" font-size="11">10</text>
<line x1="940.00" y1="424" x2="940.00" y2="429" stroke="#333"/>
<text x="940.00" y="444" text-anchor="middle" font-family="Arial" font-size="11">20</text>
<polyline points="479.00,189.94 594.25,360.96 709.50,351.96 824.75,343.03 940.00,369.97" fill="none" stroke="#d62728" stroke-width="3"/>
<circle cx="479.00" cy="189.94" r="4" fill="#d62728"/>
<circle cx="594.25" cy="360.96" r="4" fill="#d62728"/>
<circle cx="709.50" cy="351.96" r="4" fill="#d62728"/>
<circle cx="824.75" cy="343.03" r="4" fill="#d62728"/>
<circle cx="940.00" cy="369.97" r="4" fill="#d62728"/>
<polyline points="479.00,189.94 594.25,172.01 709.50,172.01 824.75,172.01 940.00,181.02" fill="none" stroke="#1f77b4" stroke-width="3"/>
<circle cx="479.00" cy="189.94" r="4" fill="#1f77b4"/>
<circle cx="594.25" cy="172.01" r="4" fill="#1f77b4"/>
<circle cx="709.50" cy="172.01" r="4" fill="#1f77b4"/>
<circle cx="824.75" cy="172.01" r="4" fill="#1f77b4"/>
<circle cx="940.00" cy="181.02" r="4" fill="#1f77b4"/>
<line x1="479" y1="127" x2="503" y2="127" stroke="#d62728" stroke-width="3"/>
<text x="509" y="131" font-family="Arial" font-size="12">hard</text>
<line x1="571" y1="127" x2="595" y2="127" stroke="#1f77b4" stroke-width="3"/>
<text x="601" y="131" font-family="Arial" font-size="12">random</text>
<text x="709.50" y="466" text-anchor="middle" font-family="Arial" font-size="12">RQ5 constructed distractor count</text>
<text x="692.50" y="491" text-anchor="middle" font-family="Arial" font-size="12" fill="#555">Survival among the 30 tasks with complete RQ3 retrieval</text>
<rect x="975" y="78" width="555" height="430" rx="8" fill="#fafafa" stroke="#d8d8d8"/>
<text x="989" y="103" font-family="Arial" font-size="15" font-weight="700">C. Task-paired failure attribution</text>
<line x1="1029" y1="154" x2="1029" y2="424" stroke="#333"/>
<line x1="1029" y1="424" x2="1510" y2="424" stroke="#333"/>
<line x1="1029" y1="424.00" x2="1510" y2="424.00" stroke="#e5e5e5"/>
<text x="1022" y="428.00" text-anchor="end" font-family="Arial" font-size="11">0.00</text>
<line x1="1029" y1="356.50" x2="1510" y2="356.50" stroke="#e5e5e5"/>
<text x="1022" y="360.50" text-anchor="end" font-family="Arial" font-size="11">0.25</text>
<line x1="1029" y1="289.00" x2="1510" y2="289.00" stroke="#e5e5e5"/>
<text x="1022" y="293.00" text-anchor="end" font-family="Arial" font-size="11">0.50</text>
<line x1="1029" y1="221.50" x2="1510" y2="221.50" stroke="#e5e5e5"/>
<text x="1022" y="225.50" text-anchor="end" font-family="Arial" font-size="11">0.75</text>
<line x1="1029" y1="154.00" x2="1510" y2="154.00" stroke="#e5e5e5"/>
<text x="1022" y="158.00" text-anchor="end" font-family="Arial" font-size="11">1.00</text>
<text x="990" y="289.00" transform="rotate(-90 990,289.00)" text-anchor="middle" font-family="Arial" font-size="11">Share of all tasks</text>
<rect x="1036.00" y="343.30" width="29.73" height="80.70" fill="#59a14f"/>
<rect x="1036.00" y="330.90" width="29.73" height="12.39" fill="#f28e2b"/>
<rect x="1036.00" y="154.00" width="29.73" height="176.90" fill="#9e9e9e"/>
<text x="1050.86" y="442" text-anchor="middle" font-family="Arial" font-size="10">0</text>
<rect x="1123.45" y="402.26" width="29.73" height="21.73" fill="#59a14f"/>
<rect x="1123.45" y="330.90" width="29.73" height="71.36" fill="#f28e2b"/>
<rect x="1123.45" y="154.00" width="29.73" height="176.90" fill="#9e9e9e"/>
<text x="1138.32" y="442" text-anchor="middle" font-family="Arial" font-size="10">2</text>
<rect x="1167.18" y="399.16" width="29.73" height="24.84" fill="#59a14f"/>
<rect x="1167.18" y="330.90" width="29.73" height="68.26" fill="#f28e2b"/>
<rect x="1167.18" y="154.00" width="29.73" height="176.90" fill="#9e9e9e"/>
<text x="1182.05" y="442" text-anchor="middle" font-family="Arial" font-size="10">5</text>
<rect x="1210.91" y="396.08" width="29.73" height="27.92" fill="#59a14f"/>
<rect x="1210.91" y="330.90" width="29.73" height="65.18" fill="#f28e2b"/>
<rect x="1210.91" y="154.00" width="29.73" height="176.90" fill="#9e9e9e"/>
<text x="1225.77" y="442" text-anchor="middle" font-family="Arial" font-size="10">10</text>
<rect x="1254.63" y="405.37" width="29.73" height="18.63" fill="#59a14f"/>
<rect x="1254.63" y="330.90" width="29.73" height="74.47" fill="#f28e2b"/>
<rect x="1254.63" y="154.00" width="29.73" height="176.90" fill="#9e9e9e"/>
<text x="1269.50" y="442" text-anchor="middle" font-family="Arial" font-size="10">20</text>
<rect x="1342.09" y="337.11" width="29.73" height="86.89" fill="#59a14f"/>
<rect x="1342.09" y="330.90" width="29.73" height="6.21" fill="#f28e2b"/>
<rect x="1342.09" y="154.00" width="29.73" height="176.90" fill="#9e9e9e"/>
<text x="1356.95" y="442" text-anchor="middle" font-family="Arial" font-size="10">2</text>
<rect x="1385.81" y="337.11" width="29.73" height="86.89" fill="#59a14f"/>
<rect x="1385.81" y="330.90" width="29.73" height="6.21" fill="#f28e2b"/>
<rect x="1385.81" y="154.00" width="29.73" height="176.90" fill="#9e9e9e"/>
<text x="1400.68" y="442" text-anchor="middle" font-family="Arial" font-size="10">5</text>
<rect x="1429.54" y="337.11" width="29.73" height="86.89" fill="#59a14f"/>
<rect x="1429.54" y="330.90" width="29.73" height="6.21" fill="#f28e2b"/>
<rect x="1429.54" y="154.00" width="29.73" height="176.90" fill="#9e9e9e"/>
<text x="1444.41" y="442" text-anchor="middle" font-family="Arial" font-size="10">10</text>
<rect x="1473.27" y="340.22" width="29.73" height="83.78" fill="#59a14f"/>
<rect x="1473.27" y="330.90" width="29.73" height="9.31" fill="#f28e2b"/>
<rect x="1473.27" y="154.00" width="29.73" height="176.90" fill="#9e9e9e"/>
<text x="1488.14" y="442" text-anchor="middle" font-family="Arial" font-size="10">20</text>
<text x="1050.86" y="459" text-anchor="middle" font-family="Arial" font-size="10" font-weight="700">shared</text>
<text x="1203.91" y="459" text-anchor="middle" font-family="Arial" font-size="10" font-weight="700">hard</text>
<text x="1422.55" y="459" text-anchor="middle" font-family="Arial" font-size="10" font-weight="700">random</text>
<rect x="1029" y="118" width="12" height="12" fill="#9e9e9e"/>
<text x="1046" y="129" font-family="Arial" font-size="10">retrieval failure</text>
<rect x="1174" y="118" width="12" height="12" fill="#f28e2b"/>
<text x="1191" y="129" font-family="Arial" font-size="10">routing failure after retrieval</text>
<rect x="1319" y="118" width="12" height="12" fill="#59a14f"/>
<text x="1336" y="129" font-family="Arial" font-size="10">exact success</text>
<text x="1252.50" y="491" text-anchor="middle" font-family="Arial" font-size="12" fill="#555">Task-paired first-failure attribution; each bar sums to 100%</text>
<text x="780.00" y="559" text-anchor="middle" font-family="Arial" font-size="12" fill="#444">Attribution order: retrieval failure first; among retrieval-complete tasks, routing failure or exact success.</text>
<text x="780.00" y="577" text-anchor="middle" font-family="Arial" font-size="11" fill="#666">RQ3 is fixed at Top-10; RQ5 n=0 is one shared baseline; routing remains a controlled diagnostic rather than executed skill use.</text>
</svg>
