<svg xmlns="http://www.w3.org/2000/svg" width="900" height="460" viewBox="0 0 900 460">
<rect width="100%" height="100%" fill="white"/>
<text x="20" y="26" font-family="Arial" font-size="17" font-weight="700">Gold selection rate by relative menu position (exploratory)</text>
<line x1="82" y1="46" x2="82" y2="384" stroke="#333"/>
<line x1="82" y1="384" x2="690" y2="384" stroke="#333"/>
<line x1="82" y1="384.00" x2="690" y2="384.00" stroke="#e5e5e5"/>
<text x="74" y="388.00" text-anchor="end" font-family="Arial" font-size="12">0.00</text>
<line x1="82" y1="299.50" x2="690" y2="299.50" stroke="#e5e5e5"/>
<text x="74" y="303.50" text-anchor="end" font-family="Arial" font-size="12">0.25</text>
<line x1="82" y1="215.00" x2="690" y2="215.00" stroke="#e5e5e5"/>
<text x="74" y="219.00" text-anchor="end" font-family="Arial" font-size="12">0.50</text>
<line x1="82" y1="130.50" x2="690" y2="130.50" stroke="#e5e5e5"/>
<text x="74" y="134.50" text-anchor="end" font-family="Arial" font-size="12">0.75</text>
<line x1="82" y1="46.00" x2="690" y2="46.00" stroke="#e5e5e5"/>
<text x="74" y="50.00" text-anchor="end" font-family="Arial" font-size="12">1.00</text>
<rect x="100.24" y="157.74" width="42.56" height="226.26" fill="#d62728"/>
<rect x="142.80" y="128.67" width="42.56" height="255.33" fill="#1f77b4"/>
<text x="142.80" y="402" text-anchor="middle" font-family="Arial" font-size="12">[0.00, 0.20)</text>
<rect x="221.84" y="176.74" width="42.56" height="207.26" fill="#d62728"/>
<rect x="264.40" y="100.72" width="42.56" height="283.28" fill="#1f77b4"/>
<text x="264.40" y="402" text-anchor="middle" font-family="Arial" font-size="12">[0.20, 0.40)</text>
<rect x="343.44" y="191.95" width="42.56" height="192.05" fill="#d62728"/>
<rect x="386.00" y="138.95" width="42.56" height="245.05" fill="#1f77b4"/>
<text x="386.00" y="402" text-anchor="middle" font-family="Arial" font-size="12">[0.40, 0.60)</text>
<rect x="465.04" y="209.76" width="42.56" height="174.24" fill="#d62728"/>
<rect x="507.60" y="142.57" width="42.56" height="241.43" fill="#1f77b4"/>
<text x="507.60" y="402" text-anchor="middle" font-family="Arial" font-size="12">[0.60, 0.80)</text>
<rect x="586.64" y="175.52" width="42.56" height="208.48" fill="#d62728"/>
<rect x="629.20" y="126.14" width="42.56" height="257.86" fill="#1f77b4"/>
<text x="629.20" y="402" text-anchor="middle" font-family="Arial" font-size="12">[0.80, 1.00)</text>
<rect x="716" y="50" width="16" height="16" fill="#d62728"/>
<text x="740" y="63" font-family="Arial" font-size="13">hard</text>
<rect x="716" y="74" width="16" height="16" fill="#1f77b4"/>
<text x="740" y="87" font-family="Arial" font-size="13">random</text>
<text x="386.00" y="446" text-anchor="middle" font-family="Arial" font-size="13">Relative menu position bin</text>
<text x="18" y="215.00" transform="rotate(-90 18,215.00)" text-anchor="middle" font-family="Arial" font-size="13">Gold selection rate</text>
</svg>
