<svg xmlns="http://www.w3.org/2000/svg" width="920" height="460" viewBox="0 0 920 460">
<rect width="100%" height="100%" fill="white"/>
<text x="82" y="22" font-family="Arial" font-size="18" font-weight="700">RQ1 retrieval scaling: metric trends by skill pool size</text>
<line x1="82" y1="35" x2="82" y2="378" stroke="#333"/>
<line x1="82" y1="378" x2="890" y2="378" stroke="#333"/>
<line x1="82" y1="378.00" x2="890" y2="378.00" stroke="#e5e5e5"/>
<text x="70" y="382.00" text-anchor="end" font-family="Arial" font-size="12">0.00</text>
<line x1="82" y1="292.25" x2="890" y2="292.25" stroke="#e5e5e5"/>
<text x="70" y="296.25" text-anchor="end" font-family="Arial" font-size="12">0.25</text>
<line x1="82" y1="206.50" x2="890" y2="206.50" stroke="#e5e5e5"/>
<text x="70" y="210.50" text-anchor="end" font-family="Arial" font-size="12">0.50</text>
<line x1="82" y1="120.75" x2="890" y2="120.75" stroke="#e5e5e5"/>
<text x="70" y="124.75" text-anchor="end" font-family="Arial" font-size="12">0.75</text>
<line x1="82" y1="35.00" x2="890" y2="35.00" stroke="#e5e5e5"/>
<text x="70" y="39.00" text-anchor="end" font-family="Arial" font-size="12">1.00</text>
<line x1="82.00" y1="378" x2="82.00" y2="384" stroke="#333"/>
<text x="82.00" y="402" text-anchor="middle" font-family="Arial" font-size="12">10</text>
<line x1="241.70" y1="378" x2="241.70" y2="384" stroke="#333"/>
<text x="241.70" y="402" text-anchor="middle" font-family="Arial" font-size="12">50</text>
<line x1="310.47" y1="378" x2="310.47" y2="384" stroke="#333"/>
<text x="310.47" y="402" text-anchor="middle" font-family="Arial" font-size="12">100</text>
<line x1="470.17" y1="378" x2="470.17" y2="384" stroke="#333"/>
<text x="470.17" y="402" text-anchor="middle" font-family="Arial" font-size="12">500</text>
<line x1="538.95" y1="378" x2="538.95" y2="384" stroke="#333"/>
<text x="538.95" y="402" text-anchor="middle" font-family="Arial" font-size="12">1000</text>
<line x1="698.64" y1="378" x2="698.64" y2="384" stroke="#333"/>
<text x="698.64" y="402" text-anchor="middle" font-family="Arial" font-size="12">5000</text>
<line x1="767.42" y1="378" x2="767.42" y2="384" stroke="#333"/>
<text x="767.42" y="402" text-anchor="middle" font-family="Arial" font-size="12">10000</text>
<line x1="890.00" y1="378" x2="890.00" y2="384" stroke="#333"/>
<text x="890.00" y="402" text-anchor="middle" font-family="Arial" font-size="12">full</text>
<polyline fill="none" stroke="#1f77b4" stroke-width="3" points="82.00,47.22 241.70,66.74 310.47,76.20 470.17,112.67 538.95,127.45 698.64,172.79 767.42,193.10 890.00,236.07"/>
<circle cx="82.00" cy="47.22" r="4" fill="#1f77b4"/>
<circle cx="241.70" cy="66.74" r="4" fill="#1f77b4"/>
<circle cx="310.47" cy="76.20" r="4" fill="#1f77b4"/>
<circle cx="470.17" cy="112.67" r="4" fill="#1f77b4"/>
<circle cx="538.95" cy="127.45" r="4" fill="#1f77b4"/>
<circle cx="698.64" cy="172.79" r="4" fill="#1f77b4"/>
<circle cx="767.42" cy="193.10" r="4" fill="#1f77b4"/>
<circle cx="890.00" cy="236.07" r="4" fill="#1f77b4"/>
<polyline fill="none" stroke="#2ca02c" stroke-width="3" points="82.00,35.00 241.70,36.97 310.47,38.94 470.17,51.95 538.95,57.67 698.64,83.69 767.42,106.36 890.00,149.33"/>
<circle cx="82.00" cy="35.00" r="4" fill="#2ca02c"/>
<circle cx="241.70" cy="36.97" r="4" fill="#2ca02c"/>
<circle cx="310.47" cy="38.94" r="4" fill="#2ca02c"/>
<circle cx="470.17" cy="51.95" r="4" fill="#2ca02c"/>
<circle cx="538.95" cy="57.67" r="4" fill="#2ca02c"/>
<circle cx="698.64" cy="83.69" r="4" fill="#2ca02c"/>
<circle cx="767.42" cy="106.36" r="4" fill="#2ca02c"/>
<circle cx="890.00" cy="149.33" r="4" fill="#2ca02c"/>
<polyline fill="none" stroke="#d62728" stroke-width="3" points="82.00,35.00 241.70,66.28 310.47,79.67 470.17,107.55 538.95,120.12 698.64,154.65 767.42,178.54 890.00,223.90"/>
<circle cx="82.00" cy="35.00" r="4" fill="#d62728"/>
<circle cx="241.70" cy="66.28" r="4" fill="#d62728"/>
<circle cx="310.47" cy="79.67" r="4" fill="#d62728"/>
<circle cx="470.17" cy="107.55" r="4" fill="#d62728"/>
<circle cx="538.95" cy="120.12" r="4" fill="#d62728"/>
<circle cx="698.64" cy="154.65" r="4" fill="#d62728"/>
<circle cx="767.42" cy="178.54" r="4" fill="#d62728"/>
<circle cx="890.00" cy="223.90" r="4" fill="#d62728"/>
<polyline fill="none" stroke="#9467bd" stroke-width="3" points="82.00,45.23 241.70,77.26 310.47,89.74 470.17,121.48 538.95,136.60 698.64,180.46 767.42,202.15 890.00,238.80"/>
<circle cx="82.00" cy="45.23" r="4" fill="#9467bd"/>
<circle cx="241.70" cy="77.26" r="4" fill="#9467bd"/>
<circle cx="310.47" cy="89.74" r="4" fill="#9467bd"/>
<circle cx="470.17" cy="121.48" r="4" fill="#9467bd"/>
<circle cx="538.95" cy="136.60" r="4" fill="#9467bd"/>
<circle cx="698.64" cy="180.46" r="4" fill="#9467bd"/>
<circle cx="767.42" cy="202.15" r="4" fill="#9467bd"/>
<circle cx="890.00" cy="238.80" r="4" fill="#9467bd"/>
<line x1="772" y1="53" x2="796" y2="53" stroke="#1f77b4" stroke-width="3"/>
<text x="804" y="57" font-family="Arial" font-size="13">Top-1</text>
<line x1="772" y1="75" x2="796" y2="75" stroke="#2ca02c" stroke-width="3"/>
<text x="804" y="79" font-family="Arial" font-size="13">Hit@10</text>
<line x1="772" y1="97" x2="796" y2="97" stroke="#d62728" stroke-width="3"/>
<text x="804" y="101" font-family="Arial" font-size="13">Recall@10</text>
<line x1="772" y1="119" x2="796" y2="119" stroke="#9467bd" stroke-width="3"/>
<text x="804" y="123" font-family="Arial" font-size="13">NDCG@10</text>
<text x="486.00" y="442" text-anchor="middle" font-family="Arial" font-size="13">Candidate pool size (log scale)</text>
<text x="18" y="206.50" transform="rotate(-90 18,206.50)" text-anchor="middle" font-family="Arial" font-size="13">Metric value</text>
</svg>
